<svg version="1.2" xmlns="http://www.w3.org/2000/svg" viewBox="0 0 600 600" width="600" height="600">
	<title>np-color_guide-1-svg</title>
	<style>
		.s0 { fill: #000000 } 
	</style>
	<g id="Layer">
		<circle id="Layer" class="s0" cx="252.9" cy="195.2" r="19"/>
		<path id="Layer" class="s0" d="m357.3 461c-5 0-9.8-2-13.4-5.6-3.6-3.5-5.6-8.3-5.6-13.4 0-5 2-9.8 5.6-13.4 3.5-3.6 8.4-5.6 13.4-5.6 5 0 9.9 2 13.4 5.6 3.6 3.6 5.6 8.4 5.6 13.4 0 5.1-2 9.9-5.6 13.4-3.5 3.6-8.4 5.6-13.4 5.6z"/>
		<circle id="Layer" class="s0" cx="252.9" cy="480" r="19"/>
		<path id="Layer" class="s0" d="m393.9 202.2l154.4-154.4c1.8-1.8 4.2-2.8 6.7-2.8 3.9 0 7.3 2.3 8.8 5.9 1.5 3.5 0.6 7.6-2.1 10.3l-154.4 154.5z"/>
		<path id="Layer" class="s0" d="m323.8 266.4l19.3 19.3-6.5 25.9c-1.3 5.1-3.9 9.8-7.7 13.4-3.7 3.7-8.4 6.3-13.5 7.5l-49.8 11.4 11.4-49.8c1.2-5.1 3.8-9.8 7.5-13.5 3.6-3.8 8.3-6.4 13.4-7.7z"/>
		<path id="Layer" class="s0" d="m148.5 252.2c-5 0-9.9-2-13.4-5.6-3.6-3.5-5.6-8.4-5.6-13.4 0-5 2-9.9 5.6-13.4 3.5-3.6 8.4-5.6 13.4-5.6 5 0 9.9 2 13.4 5.6 3.6 3.5 5.6 8.4 5.6 13.4 0 5-2 9.9-5.6 13.4-3.5 3.6-8.4 5.6-13.4 5.6z"/>
		<path id="Layer" class="s0" d="m353.6 269.3l-13.5-13.4 40.3-40.2 13.4 13.4z"/>
		<path id="Layer" class="s0" d="m161.9 428.6c4.2 4.2 6.2 10.1 5.4 15.9-0.8 5.8-4.2 11-9.3 14-5.1 2.9-11.3 3.3-16.8 1.1-5.4-2.3-9.5-6.9-11-12.6-1.6-5.7-0.3-11.8 3.2-16.5 3.6-4.7 9.2-7.4 15.1-7.4 5 0 9.9 1.9 13.4 5.5z"/>
		<circle id="Layer" class="s0" cx="110.5" cy="337.6" r="19"/>
		<path id="Layer" fill-rule="evenodd" class="s0" d="m122.2 512.2c-37.7-28.3-65.2-68-78.4-113.3-13.3-45.2-11.5-93.5 5-137.7 16.6-44.1 46.9-81.7 86.6-107.1 39.7-25.5 86.6-37.4 133.6-34 47 3.4 91.7 22 127.2 52.9l-22.5 22.5-51.8 51.9-28.6 7.1c-8.5 2.1-16.3 6.5-22.4 12.8-6.1 6.2-10.4 14-12.3 22.6l-15 64.6c-0.7 3.2 0.3 6.5 2.6 8.8 2.3 2.3 5.6 3.3 8.8 2.6l64.6-15c8.6-1.9 16.4-6.2 22.6-12.3 6.3-6.1 10.7-13.9 12.8-22.4l7.1-28.6 51.9-51.8 20-20.1c11 16.3 19.7 34 26 52.6 0.9 2.8 0.5 6-1.3 8.4-1.8 2.5-4.7 4-7.8 4h-27.2c-12.5 0-24.6 5-33.5 13.9-8.9 8.9-13.9 20.9-13.9 33.5v19c0 12.6 5 24.7 13.9 33.6 8.9 8.9 21 13.9 33.5 13.9h27.2c3.1 0 5.9 1.4 7.7 3.9 1.8 2.5 2.3 5.7 1.3 8.7-14.5 43.1-42.1 80.7-79 107.3-36.9 26.7-81.2 41.2-126.8 41.4h-1.2c-47.1 0-93-15.4-130.7-43.7zm64.3-70.2c0-10.1-4-19.7-11.2-26.8-7.1-7.1-16.7-11.1-26.8-11.1-10.1 0-19.7 4-26.9 11.1-7.1 7.1-11.1 16.8-11.1 26.8 0 10.1 4 19.8 11.1 26.9 7.2 7.1 16.8 11.1 26.9 11.1 10.1 0 19.7-4 26.8-11.1 7.2-7.1 11.2-16.8 11.2-26.9zm134.1 9.9c3.5 13.1 13.8 23.3 26.9 26.8 13.1 3.5 27.1-0.2 36.7-9.8 9.5-9.6 13.3-23.6 9.8-36.7-3.5-13.1-13.8-23.3-26.9-26.8-13.1-3.6-27.1 0.2-36.6 9.8-9.6 9.6-13.4 23.6-9.9 36.7zm-94.5-283.5c-7.2 7.1-11.2 16.8-11.2 26.8 0 10.1 4 19.8 11.1 26.9 7.2 7.1 16.8 11.1 26.9 11.1 10.1 0 19.7-4 26.8-11.1 7.2-7.1 11.2-16.8 11.2-26.9 0-10-4-19.7-11.2-26.8-7.1-7.1-16.7-11.1-26.8-11.1-10.1 0-19.7 4-26.8 11.1zm0 284.8c-7.2 7.1-11.2 16.7-11.2 26.8 0 10.1 4 19.7 11.1 26.8 7.2 7.2 16.8 11.2 26.9 11.2 10.1 0 19.7-4 26.8-11.2 7.2-7.1 11.2-16.7 11.2-26.8 0-10.1-4-19.7-11.2-26.9-7.1-7.1-16.7-11.1-26.8-11.1-10.1 0-19.7 4-26.8 11.2zm-114.3-210.2c3.5 13.1 13.8 23.4 26.9 26.9 13.1 3.5 27-0.3 36.6-9.8 9.6-9.6 13.4-23.6 9.9-36.7-3.6-13.1-13.8-23.4-26.9-26.9-13.1-3.5-27.1 0.3-36.7 9.9-9.6 9.6-13.3 23.5-9.8 36.6zm-28.1 121.5c7.1 7.1 16.8 11.1 26.8 11.1 10.1 0 19.7-4 26.9-11.1 7.1-7.2 11.1-16.8 11.1-26.9 0-10-4-19.7-11.1-26.8-7.2-7.1-16.8-11.1-26.9-11.1-10 0-19.7 4-26.8 11.1-7.1 7.1-11.1 16.8-11.1 26.8 0 10.1 4 19.7 11.1 26.9z"/>
	</g>
</svg>