<svg version="1.2" xmlns="http://www.w3.org/2000/svg" viewBox="0 0 600 600" width="600" height="600">
	<title>np-size_guide-1-svg</title>
	<style>
		.s0 { fill: #000000 } 
	</style>
	<g id="Layer">
		<path id="Layer" fill-rule="evenodd" class="s0" d="m579 158.8l-420.2 420.2-137.8-137.8 420.2-420.2zm-533.5 282.5l113.3 113.3 395.8-395.8-113.3-113.3z"/>
		<path id="Layer" class="s0" d="m395.1 78.4l54.9 54.9-12.4 12.3-54.8-54.9z"/>
		<path id="Layer" class="s0" d="m355.1 118.6l31.4 31.4-12.3 12.3-31.5-31.4z"/>
		<path id="Layer" class="s0" d="m315.8 157.8l54.9 54.9-12.4 12.3-54.8-54.9z"/>
		<path id="Layer" class="s0" d="m275.7 198l31.5 31.4-12.3 12.3-31.5-31.4z"/>
		<path id="Layer" class="s0" d="m236.5 237.2l54.8 54.9-12.3 12.3-54.9-54.9z"/>
		<path id="Layer" class="s0" d="m195.8 276.8l31.4 31.4-12.3 12.3-31.4-31.4z"/>
		<path id="Layer" class="s0" d="m156.5 316l54.9 54.9-12.3 12.3-54.9-54.9z"/>
		<path id="Layer copy" class="s0" d="m76.5 395l54.9 54.9-12.3 12.3-54.9-54.9z"/>
		<path id="Layer" class="s0" d="m116.5 356.1l31.4 31.5-12.3 12.3-31.4-31.4z"/>
	</g>
</svg>